<?xml version="1.0" encoding="UTF-8"?>
<svg width="91px" height="55px" viewBox="0 0 91 55" version="1.1" xmlns="http://www.w3.org/2000/svg" xmlns:xlink="http://www.w3.org/1999/xlink">
    <!-- Generator: Sketch 52.6 (67491) - http://www.bohemiancoding.com/sketch -->
    <title>91x55</title>
    <desc>Created with Sketch.</desc>
    <g id="91x55" stroke="none" stroke-width="1" fill="none" fill-rule="evenodd">
        <path d="M31.6700348,0 C27.3910348,0 23.8890348,3.564 23.8890348,7.843 C23.8890348,11.285 26.1490348,14.197 29.2640348,15.219 L29.2640348,38.812 C26.1480348,39.842 23.8890348,42.808 23.8890348,46.25 C23.8890348,50.529 27.3910348,54.031 31.6700348,54.031 C35.9490348,54.031 39.4820348,50.529 39.4820348,46.25 C39.4820348,42.808 37.1920348,39.842 34.0760348,38.812 L34.0760348,38.437 C34.0760348,34.88 35.1650348,33.481 37.1700348,32.219 C39.1750348,30.956 42.3250348,30.176 45.7320348,29.343 C49.1400348,28.511 52.8300348,27.601 55.8890348,25.312 C58.6680348,23.233 60.6720348,19.871 61.0140348,15.25 C64.1580348,14.246 66.4820348,11.306 66.4820348,7.843 C66.4820348,3.564 62.9490348,7.10542736e-15 58.6700348,7.10542736e-15 C54.3910348,7.10542736e-15 50.8890348,3.564 50.8890348,7.843 C50.8890348,11.264 53.1470348,14.18 56.2320348,15.219 C55.9790348,18.508 54.7840348,20.176 53.0140348,21.5 C51.0100348,22.999 47.9500348,23.87 44.6080348,24.687 C41.2650348,25.504 37.6650348,26.231 34.6080348,28.156 C34.4240348,28.272 34.2540348,28.404 34.0760348,28.531 L34.0760348,15.219 C37.1910348,14.197 39.4820348,11.285 39.4820348,7.843 C39.4820348,3.564 35.9490348,7.10542736e-15 31.6700348,0 Z M31.6700348,4.812 C33.3550348,4.812 34.7010348,6.158 34.7010348,7.843 C34.7010348,9.529 33.3550348,10.812 31.6700348,10.812 C29.9850348,10.812 28.6700348,9.529 28.6700348,7.843 C28.6700348,6.158 29.9850348,4.812 31.6700348,4.812 Z M58.6700348,4.812 C60.3550348,4.812 61.7010348,6.158 61.7010348,7.843 C61.7010348,9.529 60.3550348,10.812 58.6700348,10.812 C56.9850348,10.812 55.6700348,9.529 55.6700348,7.843 C55.6700348,6.158 56.9850348,4.812 58.6700348,4.812 Z M19.7320348,7.187 C19.6481397,7.19269028 19.5646584,7.20337589 19.4820348,7.219 C19.0067429,7.27949687 18.5660476,7.49949194 18.2320348,7.843 L0.608034827,25.5 C-0.202678276,26.3236371 -0.202678276,27.6453629 0.608034827,28.469 L18.2320348,46.093 C18.7462105,46.6988886 19.55648,46.9656538 20.3300296,46.783723 C21.1035791,46.6017922 21.7100046,46.0018352 21.9002202,45.2302811 C22.0904357,44.458727 21.8323748,43.6456434 21.2320348,43.125 L5.10803483,27 L21.2320348,10.843 C21.869936,10.2420825 22.0714477,9.31014948 21.7387974,8.49936985 C21.4061471,7.68859022 20.6081678,7.16673281 19.7320348,7.187 Z M70.4200348,7.343 C69.5913622,7.40753417 68.8772018,7.95119757 68.5943977,8.73278878 C68.3115936,9.51438 68.5125203,10.3891505 69.1080348,10.969 L85.2320348,27.125 L69.1080348,43.25 C68.2796077,44.0784271 68.2796077,45.4215729 69.1080348,46.25 C69.936462,47.0784271 71.2796077,47.0784271 72.1080348,46.25 L89.7320348,28.593 C90.5420919,27.7694835 90.5420919,26.4485165 89.7320348,25.625 L72.1080348,8 C71.7706839,7.63781547 71.3170514,7.40533765 70.8260348,7.343 C70.6910143,7.32998792 70.5550554,7.32998792 70.4200348,7.343 Z M31.6700348,43.219 C33.3550348,43.219 34.7010348,44.564 34.7010348,46.25 C34.7010348,47.935 33.3550348,49.219 31.6700348,49.219 C29.9850348,49.219 28.6700348,47.935 28.6700348,46.25 C28.6700348,44.564 29.9850348,43.219 31.6700348,43.219 Z" id="Shape" fill="#000000" fill-rule="nonzero"></path>
    </g>
</svg>